<?xml version="1.0" encoding="utf-8"?>
<!-- Generator: Adobe Illustrator 17.0.0, SVG Export Plug-In . SVG Version: 6.00 Build 0)  -->
<!DOCTYPE svg PUBLIC "-//W3C//DTD SVG 1.1//EN" "http://www.w3.org/Graphics/SVG/1.1/DTD/svg11.dtd">
<svg version="1.1" id="图层_1" xmlns="http://www.w3.org/2000/svg" xmlns:xlink="http://www.w3.org/1999/xlink" x="0px" y="0px"
	 width="49.035px" height="49.035px" viewBox="0 0 49.035 49.035" enable-background="new 0 0 49.035 49.035" xml:space="preserve">
<g>
	<path fill="#FFFFFF" d="M24.518,0C10.975,0,0,10.975,0,24.518s10.975,24.518,24.518,24.518S49.035,38.06,49.035,24.518
		S38.06,0,24.518,0L24.518,0z M39.906,39.906c-2,2-4.325,3.57-6.92,4.666c-2.683,1.135-5.532,1.708-8.468,1.708
		s-5.79-0.573-8.468-1.708c-2.589-1.096-4.92-2.667-6.92-4.666c-2-2-3.57-4.325-4.666-6.92c-1.135-2.683-1.708-5.532-1.708-8.468
		s0.573-5.79,1.708-8.468c1.096-2.589,2.667-4.92,4.666-6.92c2-2,4.325-3.57,6.92-4.666c2.683-1.135,5.532-1.708,8.468-1.708
		s5.79,0.573,8.468,1.708c2.253,0.953,4.308,2.264,6.121,3.906l-5.747,5.747c-2.38-2.028-5.471-3.256-8.843-3.256
		c-7.543,0-13.653,6.116-13.653,13.653c0,7.537,6.115,13.653,13.653,13.653S38.17,32.049,38.17,24.512
		c0-3.174-1.085-6.094-2.898-8.413l5.763-5.763c1.471,1.708,2.655,3.62,3.537,5.702c1.135,2.683,1.708,5.532,1.708,8.468
		c0,2.937-0.573,5.791-1.708,8.468C43.476,35.581,41.906,37.906,39.906,39.906L39.906,39.906z M23.653,23.834
		c-0.485,0.54-0.468,1.372,0.05,1.896c0.518,0.518,1.355,0.54,1.895,0.049l8.887-8.887c0.645,0.843,1.179,1.758,1.598,2.744
		c0.656,1.548,0.986,3.19,0.986,4.887c0,1.697-0.33,3.339-0.986,4.887c-0.634,1.493-1.537,2.837-2.689,3.989
		c-1.151,1.151-2.496,2.06-3.989,2.689c-1.548,0.656-3.19,0.986-4.887,0.986s-3.339-0.331-4.887-0.986
		c-1.493-0.634-2.837-1.537-3.989-2.689c-1.152-1.152-2.061-2.496-2.689-3.989c-0.656-1.548-0.986-3.19-0.986-4.887
		c0-1.697,0.33-3.339,0.986-4.887c0.634-1.493,1.537-2.837,2.689-3.989c1.151-1.151,2.496-2.06,3.989-2.689
		c1.548-0.656,3.19-0.986,4.887-0.986s3.339,0.331,4.887,0.986c1.157,0.49,2.22,1.14,3.179,1.945L23.653,23.834z M23.653,23.834"/>
</g>
</svg>
