<?xml version="1.0" standalone="no"?><!DOCTYPE svg PUBLIC "-//W3C//DTD SVG 1.1//EN" "http://www.w3.org/Graphics/SVG/1.1/DTD/svg11.dtd"><svg t="1586076133323" class="icon" viewBox="0 0 1024 1024" version="1.1" xmlns="http://www.w3.org/2000/svg" p-id="3050" xmlns:xlink="http://www.w3.org/1999/xlink" width="200" height="200"><defs><style type="text/css">html, * { user-select: text !important; }
</style></defs><path d="M611.213 4.291a1097.593 1097.593 0 0 0-42.2-2.873A1157.461 1157.461 0 0 0 512 0.007a1158.4 1158.4 0 0 0-56.374 1.379c-14.537 0.709-28.84 1.671-42.839 2.904-175.012 15.416-304.533 70.667-304.533 136.459V620.249c0 150.944 184.991 282.529 304.534 351.805a1369.21 1369.21 0 0 0 42.839 23.809c34.089 18.152 56.374 28.132 56.374 28.132s22.562-10.104 57.013-28.472a1368.035 1368.035 0 0 0 42.2-23.469c119.543-69.275 304.533-200.86 304.533-351.805v-479.5C915.746 74.957 786.225 19.706 611.213 4.291zM188.254 369.687V149.983c2.456-2.292 6.677-5.73 13.525-9.991 12.637-7.864 29.799-15.719 49.631-22.715 45.629-16.097 103.859-27.61 168.397-33.295 11.79-1.039 23.75-1.868 35.819-2.5v301.056H188.254v-12.851z m264.645 533.15c-51.153-29.644-124.078-76.778-180.997-132.983-27.622-27.276-48.789-54.021-62.912-79.492-13.76-24.814-20.737-48.404-20.737-70.112v-95.98h267.373v380.14c-0.907-0.522-1.811-1.043-2.727-1.573z m382.847-363.071v80.483c0 21.708-6.977 45.298-20.736 70.112-14.124 25.472-35.291 52.217-62.912 79.492-56.919 56.205-129.844 103.34-180.996 132.982-0.701 0.406-1.393 0.804-2.089 1.205V524.27h266.733v15.496zM569.013 382.538V81.512c11.854 0.629 23.599 1.45 35.181 2.47 64.537 5.685 122.768 17.198 168.396 33.295 19.832 6.996 36.994 14.851 49.631 22.715 6.849 4.261 11.069 7.699 13.525 9.991v232.555H569.013z" p-id="3051" fill="#ffffff"></path></svg>