<?xml version="1.0" standalone="no"?><!DOCTYPE svg PUBLIC "-//W3C//DTD SVG 1.1//EN" "http://www.w3.org/Graphics/SVG/1.1/DTD/svg11.dtd"><svg t="1586076010890" class="icon" viewBox="0 0 1024 1024" version="1.1" xmlns="http://www.w3.org/2000/svg" p-id="2178" xmlns:xlink="http://www.w3.org/1999/xlink" width="200" height="200"><defs><style type="text/css">html, * { user-select: text !important; }
</style></defs><path d="M361.6 780.8c-6.4-16 3.2-35.2 19.2-41.6s35.2 3.2 41.6 19.2C448 825.6 483.2 864 512 864c28.8 0 64-38.4 89.6-105.6 6.4-16 25.6-25.6 41.6-19.2 16 6.4 25.6 25.6 19.2 41.6C627.2 870.4 576 928 512 928s-115.2-57.6-150.4-147.2zM704 547.2c0 19.2-16 32-32 32-19.2 0-32-16-32-32v-32c0-195.2-64-352-128-352s-128 156.8-128 352v32c0 19.2-12.8 32-32 32s-32-12.8-32-32v-32c0-227.2 76.8-416 192-416s192 188.8 192 416v32z" fill="#ffffff" p-id="2179"></path><path d="M246.4 361.6c16-6.4 35.2 3.2 41.6 19.2s-3.2 35.2-19.2 41.6C198.4 448 160 483.2 160 512c0 28.8 38.4 64 108.8 89.6 51.2 19.2 115.2 32 182.4 35.2 19.2 0 41.6 3.2 60.8 3.2 22.4 0 41.6 0 64-3.2 70.4-6.4 131.2-19.2 182.4-38.4C828.8 576 864 540.8 864 512c0-28.8-35.2-64-105.6-89.6-16-6.4-25.6-25.6-19.2-41.6s25.6-25.6 41.6-19.2C873.6 396.8 928 448 928 512s-57.6 115.2-147.2 147.2c-57.6 22.4-128 35.2-201.6 41.6-22.4 3.2-44.8 3.2-67.2 3.2-22.4 0-44.8 0-64-3.2-73.6-6.4-144-19.2-198.4-38.4C153.6 627.2 96 576 96 512s57.6-115.2 150.4-150.4z" fill="#ffffff" p-id="2180"></path></svg>