<?xml version="1.0" standalone="no"?><!DOCTYPE svg PUBLIC "-//W3C//DTD SVG 1.1//EN" "http://www.w3.org/Graphics/SVG/1.1/DTD/svg11.dtd"><svg t="1586072764698" class="icon" viewBox="0 0 1024 1024" version="1.1" xmlns="http://www.w3.org/2000/svg" p-id="1871" xmlns:xlink="http://www.w3.org/1999/xlink" width="200" height="200"><defs><style type="text/css">html, * { user-select: text !important; }
</style></defs><path d="M482.114859 960.053887C247.662163 944.61417 63.99936 748.057287 63.99936 512.525307 63.99936 265.217444 264.96759 63.99936 511.99488 63.99936s447.99552 201.218084 447.99552 448.525947a455.757362 455.757362 0 0 1-3.97308 59.968936q-1.99678 15.046506-4.99707 29.781718a31.991488 31.991488 0 0 0 62.688653 12.81216q3.471325-16.877399 5.754822-34.123435a520.788904 520.788904 0 0 0 4.526035-68.439379C1023.98976 229.904133 794.308857 0 511.99488 0S0 229.904133 0 512.525307c0 269.124989 209.938381 493.745335 477.936981 511.400966 0.716793 0.03072 1.392626 0.063487 2.129898 0.063487a32.001728 32.001728 0 0 0 2.04798-63.935873z m-216.737673-201.437217a31.975104 31.975104 0 0 0 45.239868 0L511.99488 557.255227l73.379106 73.372963a31.991488 31.991488 0 1 0 45.239868-45.24806L557.255227 511.99488l41.369187-41.369186a31.99968 31.99968 0 0 0-45.260348-45.24806l-41.369186 41.369187-41.369186-41.369187a31.99968 31.99968 0 1 0-45.260348 45.24806l41.369187 41.369186-201.357347 201.37373a31.962816 31.962816 0 0 0 0 45.24806z m630.613854-214.628254v-63.99936h-63.99936v63.99936h63.99936zM480.00544 127.99872v63.99936h63.97888V127.99872h-63.97888zM191.99808 543.99456v-63.99936H127.99872v63.99936h63.99936zM736.00288 959.9904h-59.657643c41.676383-47.343143 89.742463-104.651753 89.742462-158.935499 0-27.999976-9.625504-52.813296-27.156208-69.875013a95.99904 95.99904 0 0 0-162.937251 68.812112 31.99968 31.99968 0 1 0 63.99936 0 31.99968 31.99968 0 0 1 54.312417-22.937371c4.935631 4.812752 7.782322 13.56172 7.782322 24.000272 0 33.126069-48.537115 88.063119-80.649433 124.437284-16.568154 18.747205-30.842572 34.903715-40.05848 48.741913a31.993536 31.993536 0 0 0 26.623734 49.749518h127.99872a31.99968 31.99968 0 0 0 0-63.993216z m255.99744-63.99936v-159.9984a31.985344 31.985344 0 0 0-32.00992-31.99968h-32.00992a31.983296 31.983296 0 0 0-28.610274 17.686351l-96.00928 191.99808a32.02016 32.02016 0 0 0 28.630754 46.313009h95.9888v31.99968a32.00992 32.00992 0 0 0 64.01984 0V959.9904a31.99968 31.99968 0 0 0 0-63.99936z m-108.235718 0l44.215878-88.4379V895.99104h-44.215878z" p-id="1872" fill="#ffffff"></path></svg>