<?xml version="1.0" encoding="utf-8"?>
<!-- Generator: Adobe Illustrator 17.0.0, SVG Export Plug-In . SVG Version: 6.00 Build 0)  -->
<!DOCTYPE svg PUBLIC "-//W3C//DTD SVG 1.1//EN" "http://www.w3.org/Graphics/SVG/1.1/DTD/svg11.dtd">
<svg version="1.1" id="图层_1" xmlns="http://www.w3.org/2000/svg" xmlns:xlink="http://www.w3.org/1999/xlink" x="0px" y="0px"
	 width="194.5px" height="91.003px" viewBox="0 0 194.5 91.003" enable-background="new 0 0 194.5 91.003" xml:space="preserve">
<g id="XMLID_273_">
	<g id="XMLID_321_">
		<path id="XMLID_333_" fill-rule="evenodd" clip-rule="evenodd" fill="#F4A000" d="M52.769,28.212
			c3.51,0.351,6.668-2.205,7.072-5.715c0.351-3.51-2.21-6.721-5.72-7.072c-3.51-0.4-6.668,2.157-7.068,5.667
			C46.65,24.654,49.259,27.813,52.769,28.212L52.769,28.212z"/>
		<path id="XMLID_332_" fill-rule="evenodd" clip-rule="evenodd" fill="#F4A000" d="M45.798,1.535
			c3.259,0.347,5.619,3.259,5.267,6.466c-0.351,3.259-3.259,5.619-6.519,5.267c-3.211-0.351-5.57-3.259-5.219-6.519
			C39.679,3.538,42.587,1.184,45.798,1.535L45.798,1.535z"/>
		<path id="XMLID_331_" fill-rule="evenodd" clip-rule="evenodd" fill="#F4A000" d="M28.697,0.028
			c2.961,0.303,5.065,2.961,4.766,5.869c-0.303,2.956-2.961,5.065-5.869,4.762c-2.961-0.299-5.065-2.956-4.766-5.864
			C23.131,1.834,25.789-0.27,28.697,0.028L28.697,0.028z"/>
		<path id="XMLID_330_" fill-rule="evenodd" clip-rule="evenodd" fill="#F4A000" d="M17.363,10.909
			c2.658,0.303,4.564,2.662,4.261,5.32c-0.25,2.605-2.658,4.511-5.267,4.261c-2.658-0.298-4.559-2.658-4.261-5.315
			C12.347,12.565,14.754,10.61,17.363,10.909L17.363,10.909z"/>
		<path id="XMLID_329_" fill-rule="evenodd" clip-rule="evenodd" fill="#F4A000" d="M16.208,24.351
			c2.46,0.303,4.266,2.508,4.015,5.017c-0.255,2.508-2.508,4.314-5.017,4.01c-2.46-0.25-4.266-2.508-4.01-4.964
			C11.446,25.906,13.7,24.101,16.208,24.351L16.208,24.351z"/>
		<path id="XMLID_328_" fill-rule="evenodd" clip-rule="evenodd" fill="#F4A000" d="M22.929,35.135
			c2.306,0.25,4.01,2.354,3.76,4.665c-0.25,2.354-2.354,4.059-4.713,3.808c-2.306-0.25-4.01-2.354-3.76-4.713
			C18.466,36.536,20.57,34.885,22.929,35.135L22.929,35.135z"/>
		<path id="XMLID_327_" fill-rule="evenodd" clip-rule="evenodd" fill="#F4A000" d="M26.742,44.914
			c1.752,0.202,3.009,1.805,2.855,3.51c-0.197,1.757-1.805,3.062-3.51,2.86c-1.752-0.202-3.057-1.757-2.855-3.51
			C23.43,46.016,24.985,44.764,26.742,44.914L26.742,44.914z"/>
		<path id="XMLID_326_" fill-rule="evenodd" clip-rule="evenodd" fill="#F4A000" d="M16.16,56.651
			c1.305,0.149,2.205,1.353,2.104,2.658c-0.149,1.305-1.353,2.253-2.658,2.104c-1.305-0.149-2.205-1.305-2.104-2.658
			C13.651,57.451,14.855,56.55,16.16,56.651L16.16,56.651z"/>
		<path id="XMLID_325_" fill-rule="evenodd" clip-rule="evenodd" fill="#F4A000" d="M9.338,55.949
			c1.155,0.101,2.008,1.151,1.907,2.306c-0.149,1.155-1.204,2.008-2.359,1.854c-1.151-0.096-2.003-1.151-1.854-2.306
			C7.133,56.651,8.187,55.799,9.338,55.949L9.338,55.949z"/>
		<path id="XMLID_324_" fill-rule="evenodd" clip-rule="evenodd" fill="#F4A000" d="M4.374,52.188
			c1.001,0.096,1.704,1.001,1.603,2.003c-0.101,1.006-1.001,1.757-2.008,1.656c-1.001-0.149-1.752-1.054-1.603-2.056
			C2.467,52.79,3.368,52.087,4.374,52.188L4.374,52.188z"/>
		<path id="XMLID_323_" fill-rule="evenodd" clip-rule="evenodd" fill="#F4A000" d="M1.466,47.172
			c0.698,0.101,1.252,0.751,1.151,1.454c-0.101,0.751-0.703,1.252-1.454,1.204c-0.703-0.101-1.252-0.751-1.151-1.454
			C0.06,47.624,0.71,47.119,1.466,47.172L1.466,47.172z"/>
		<path id="XMLID_322_" fill-rule="evenodd" clip-rule="evenodd" fill="#F4A000" d="M23.179,52.588
			c1.603,0.202,2.759,1.603,2.556,3.211c-0.149,1.603-1.603,2.754-3.206,2.605c-1.608-0.197-2.759-1.603-2.561-3.206
			C20.122,53.589,21.576,52.439,23.179,52.588L23.179,52.588z"/>
	</g>
	<g id="XMLID_274_">
		<g id="XMLID_286_">
			<path id="XMLID_317_" fill-rule="evenodd" clip-rule="evenodd" fill="#FFFFFF" d="M154.119,75.216h2.768
				c0.26,0,0.467-0.212,0.467-0.467v-4.078c0-0.255-0.207-0.467-0.467-0.467h-2.768c-0.279,0-0.506-0.226-0.506-0.506V68.25
				c0-0.279,0.226-0.506,0.506-0.506h2.768c0.26,0,0.467-0.207,0.467-0.467V66.93c0-0.274,0.226-0.501,0.506-0.501h5.2
				c0.279,0,0.506,0.226,0.506,0.501c0,7.039,0,14.106,0,21.145c0,1.613-1.319,2.927-2.932,2.927c-2.171,0-4.343,0-6.514,0
				c-0.279,0-0.506-0.226-0.506-0.501v-1.454c0-0.274,0.226-0.501,0.506-0.501h3.235V78.143c0-0.26-0.207-0.467-0.467-0.467h-2.768
				c-0.279,0-0.506-0.226-0.506-0.506v-1.449C153.614,75.442,153.84,75.216,154.119,75.216L154.119,75.216z M174.292,83.097
				l-2.484,7.227c-0.14,0.414-0.515,0.679-0.953,0.679h-5.084c-0.173,0-0.327-0.082-0.424-0.231
				c-0.096-0.149-0.106-0.323-0.034-0.481l3.288-7.193l-2.946-4.964c-0.087-0.149-0.048-0.327,0.048-0.472
				c0.096-0.144,0.246-0.226,0.419-0.226h4.285c0.419,0,0.722,0.27,0.934,0.631l2.951,5.026V83.097z M165.876,73.907h4.973
				c0.26,0,0.472-0.212,0.472-0.467v-2.768c0-0.255-0.212-0.467-0.472-0.467h-4.973c-0.279,0-0.506-0.226-0.506-0.506V68.25
				c0-0.279,0.226-0.506,0.506-0.506h4.973c0.26,0,0.472-0.207,0.472-0.467V66.93c0-0.274,0.226-0.501,0.501-0.501h5.195
				c0.279,0,0.506,0.226,0.506,0.501v0.347c0,0.26,0.212,0.467,0.467,0.467h4.973c0.274,0,0.501,0.226,0.501,0.506v1.449
				c0,0.279-0.226,0.506-0.501,0.506h-4.973c-0.255,0-0.467,0.212-0.467,0.467v2.768c0,0.255,0.212,0.467,0.467,0.467h3.129
				c1.367,0,2.345,0.843,2.345,2.581l-3.746,6.61l3.404,7.188c0.077,0.159,0.067,0.332-0.029,0.481
				c-0.096,0.154-0.25,0.236-0.424,0.236h-4.944c-0.438,0-0.814-0.265-0.953-0.679l-2.479-7.227v-0.005v0.005l3.606-6.61h-12.022
				c-0.279,0-0.506-0.226-0.506-0.506v-1.57C165.371,74.133,165.597,73.907,165.876,73.907L165.876,73.907z"/>
			<path id="XMLID_312_" fill-rule="evenodd" clip-rule="evenodd" fill="#FFFFFF" d="M146.801,91.003h-5.204
				c-0.14,0-0.26-0.048-0.356-0.144c-0.101-0.101-0.149-0.221-0.149-0.356v-6.384h-6.716c-0.274,0-0.506-0.226-0.506-0.506v-1.574
				c0-0.274,0.226-0.501,0.506-0.501h6.716V66.959c0-0.274,0.226-0.506,0.506-0.506h5.204c0.274,0,0.506,0.231,0.501,0.506v14.578
				H148c0.279,0,0.506,0.231,0.506,0.501v1.574c0,0.274-0.231,0.506-0.506,0.506h-0.698v6.384
				C147.302,90.777,147.076,91.003,146.801,91.003L146.801,91.003z M125.959,66.454h5.941v0.005h0.92
				c0.274,0,0.501,0.226,0.501,0.501v1.454c0,0.274-0.226,0.501-0.501,0.501h-0.481l0,0h-0.01l0,0h-0.014h-0.01l0,0l-0.01,0.005l0,0
				h-0.01l0,0h-0.014l0,0l-0.01,0.005l0,0h-0.01l0,0l-0.01,0.005l0,0h-0.014l0,0l-0.01,0.005l0,0h-0.01l0,0l-0.01,0.005l-0.019,0.01
				l0,0c-0.106,0.039-0.193,0.12-0.241,0.226l0,0l-0.005,0.01l0,0l-0.01,0.019l0,0v0.01l0,0l-0.005,0.01l0,0l-0.005,0.014l0,0v0.01
				l0,0l-0.005,0.01l0,0v0.01l0,0l-0.005,0.01l0,0v0.014l0,0v0.01l0,0l-0.005,0.01l0,0v0.01l0,0v0.014l0,0v0.01l0,0v0.01v0.005l0,0
				v0.424c0,0.241,0.197,0.438,0.438,0.438l0,0h0.481c0.274,0,0.501,0.226,0.501,0.506v1.372c0,0.279-0.226,0.506-0.501,0.506
				h-0.481c-0.241,0-0.438,0.197-0.438,0.438v0.428c0,0.241,0.197,0.438,0.438,0.438h0.481c0.274,0,0.501,0.226,0.501,0.506v1.449
				c0,0.274-0.226,0.506-0.501,0.506h-0.481c-0.241,0-0.438,0.197-0.438,0.438v13.697c0,0.274-0.226,0.501-0.506,0.501h-4.935
				c-0.274,0-0.501-0.226-0.501-0.501V76.805c0-0.241-0.202-0.438-0.443-0.438h-0.828v14.135c0,0.274-0.226,0.501-0.506,0.501
				h-3.664c-0.279,0-0.506-0.226-0.506-0.501c0-4.627,0-9.037,0-13.664c0-1.618,1.319-2.932,2.932-2.932h2.571
				c0.241,0,0.443-0.197,0.443-0.438V73.04c0-0.241-0.202-0.438-0.443-0.438h-4.997c-0.279,0-0.506-0.226-0.506-0.506v-1.372
				c0-0.279,0.226-0.506,0.506-0.506h2.499h2.499c0.241,0,0.443-0.197,0.443-0.438v-0.424l0,0v-0.005l-0.005-0.01l0,0v-0.01l0,0
				v-0.014l0,0v-0.01l0,0v-0.01l0,0l-0.005-0.01l0,0v-0.014l0,0v-0.01l0,0l-0.005-0.01l0,0v-0.01l0,0l-0.005-0.01v-0.005
				l-0.005-0.01l0,0v-0.01l0,0l-0.005-0.01l0,0l0,0l-0.01-0.019l0,0l-0.005-0.01l0,0l-0.005-0.01l0,0v-0.01h-0.005l-0.005-0.01l0,0
				l-0.005-0.01l0,0l-0.005-0.01l0,0l-0.005-0.01l0,0l-0.01-0.014l0,0c-0.043-0.063-0.101-0.111-0.169-0.144l0,0l-0.01-0.005l0,0
				l-0.019-0.005l0,0l-0.01-0.005h-0.005c-0.01-0.005-0.024-0.01-0.039-0.014l0,0h-0.01l0,0l-0.01-0.005h-0.005h-0.01l0,0
				l-0.01-0.005l0,0h-0.01l0,0h-0.01h-0.005l-0.01-0.005l0,0h-0.01l0,0h-0.01h-0.014h-2.499h-2.499
				c-0.279,0-0.506-0.226-0.506-0.501v-1.454c0-0.274,0.226-0.501,0.506-0.501h5.44V66.454z M135.506,73.916l4.035,1.767
				c0.255,0.111,0.188,0.409,0.188,0.688v2.162c0,0.274-0.443,0.294-0.688,0.183l-4.039-1.772c-0.25-0.111-0.183-0.419-0.183-0.693
				v-2.147C134.818,73.83,135.251,73.805,135.506,73.916L135.506,73.916z M135.506,68.038l4.039,1.762
				c0.25,0.111,0.183,0.409,0.183,0.688v2.162c0,0.274-0.443,0.294-0.688,0.183l-4.039-1.772c-0.25-0.111-0.183-0.419-0.183-0.693
				v-2.147C134.818,67.946,135.251,67.927,135.506,68.038L135.506,68.038z"/>
			<path id="XMLID_294_" fill-rule="evenodd" clip-rule="evenodd" fill="#FFFFFF" d="M80.202,68.225
				c0-0.265-0.217-0.481-0.481-0.481H68.797v-0.809c0-0.265-0.217-0.481-0.481-0.481h-5.864c-0.265,0-0.481,0.217-0.481,0.481v0.809
				H51.046c-0.265,0-0.481,0.217-0.481,0.481c0,6.673,0,13.351,0,20.023c0,0.27,0.217,0.481,0.481,0.481H61.97v1.791
				c0,0.265,0.217,0.481,0.481,0.481h5.864c0.265,0,0.481-0.217,0.481-0.481V88.73c2.816,0,5.628,0,8.44,0
				c1.632,0,2.966-1.329,2.966-2.961C80.202,79.92,80.202,74.07,80.202,68.225L80.202,68.225z M69.24,76.367h-0.014h-0.01l0,0h-0.01
				h-0.005h-0.01l0,0h-0.01l0,0l-0.01,0.005l0,0h-0.014l0,0l-0.01,0.005l0,0h-0.01l0,0l-0.01,0.005l0,0
				c-0.014,0-0.029,0.005-0.043,0.01l0,0l-0.01,0.005l0,0l-0.019,0.01l0,0l-0.01,0.005l0,0c-0.067,0.029-0.125,0.082-0.169,0.14l0,0
				l-0.01,0.019l0,0l-0.005,0.01h-0.005l-0.005,0.01l0,0l-0.005,0.005v0.005l-0.005,0.005l0,0l-0.005,0.01l0,0l-0.005,0.01l0,0
				l-0.005,0.01v0.005l-0.005,0.014v0.005l0,0l-0.005,0.01l0,0l-0.005,0.01l0,0v0.01l0,0l-0.005,0.01l0,0v0.01l0,0l-0.005,0.014l0,0
				v0.01l0,0l-0.005,0.01l0,0v0.01l0,0v0.014l0,0l-0.005,0.01l0,0v0.01l0,0v0.014l0,0v0.01l0,0v0.005v9.022
				c0,0.246,0.197,0.443,0.443,0.443h3.693c0.241,0,0.438-0.197,0.438-0.443V76.81v-0.005l0,0v-0.01l0,0v-0.014l0,0v-0.01l0,0v-0.01
				l0,0l-0.005-0.014l0,0v-0.01l0,0v-0.01l0,0l-0.005-0.01l0,0v-0.014l0,0l-0.005-0.01l0,0v-0.01l0,0l-0.005-0.01l0,0l-0.005-0.01
				l0,0l-0.005-0.01l0,0v-0.005l-0.005-0.014v-0.005l-0.005-0.01l0,0l-0.005-0.01l0,0l-0.005-0.01l0,0l-0.005-0.005v-0.005
				l-0.005-0.005l0,0l-0.005-0.01l0,0l-0.005-0.01l0,0l-0.014-0.019l0,0c-0.043-0.058-0.101-0.111-0.169-0.14l0,0l-0.01-0.005l0,0
				l-0.019-0.01l0,0l-0.01-0.005l0,0c-0.014-0.005-0.029-0.01-0.039-0.01h-0.005l-0.01-0.005l0,0h-0.01l0,0l-0.01-0.005l0,0H73l0,0
				l-0.014-0.005l0,0h-0.01l0,0h-0.01l0,0h-0.014l0,0h-0.01h-0.01H69.24z M57.834,76.367h-0.01H57.81l0,0H57.8l0,0h-0.01l0,0h-0.01
				h-0.005l-0.01,0.005l0,0h-0.01l0,0l-0.01,0.005l0,0h-0.01h-0.005l-0.01,0.005l0,0c-0.014,0-0.024,0.005-0.039,0.01l0,0
				l-0.01,0.005l0,0l-0.019,0.01l0,0l-0.01,0.005l0,0c-0.067,0.029-0.125,0.082-0.169,0.14l0,0l-0.014,0.019l0,0l-0.005,0.01l0,0
				l-0.005,0.01l0,0l-0.005,0.005v0.005l-0.005,0.005l0,0l-0.005,0.01l0,0l-0.005,0.01l0,0l-0.005,0.01v0.005l-0.01,0.014v0.005l0,0
				v0.01l0,0l-0.005,0.01l0,0l-0.005,0.01l0,0v0.01l0,0l-0.005,0.01l0,0v0.014l0,0l-0.005,0.01l0,0v0.01l0,0l-0.005,0.01l0,0v0.014
				l0,0v0.01l0,0v0.01l0,0v0.014l0,0v0.01l0,0v0.005v9.022c0,0.246,0.197,0.443,0.438,0.443h3.693c0.246,0,0.443-0.197,0.443-0.443
				V76.81v-0.005l0,0v-0.01l0,0l-0.005-0.014l0,0v-0.01l0,0v-0.01l0,0v-0.014l0,0v-0.01l0,0l-0.005-0.01l0,0v-0.01l0,0l-0.005-0.014
				l0,0v-0.01l0,0l-0.005-0.01l0,0l-0.005-0.01l0,0v-0.01l0,0l-0.005-0.01l0,0v-0.005l-0.01-0.014v-0.005v-0.01h-0.005v-0.01l0,0
				l-0.005-0.01l0,0l-0.005-0.005l-0.005-0.005l-0.005-0.005l0,0l-0.005-0.01l0,0l-0.005-0.01l0,0l-0.01-0.019l0,0
				c-0.043-0.058-0.101-0.111-0.169-0.14l0,0l-0.01-0.005l0,0l-0.019-0.01l0,0l-0.01-0.005h-0.005
				c-0.01-0.005-0.024-0.01-0.039-0.01l0,0l-0.01-0.005l0,0h-0.01l0,0l-0.014-0.005l0,0h-0.01l0,0l-0.01-0.005l0,0h-0.01l0,0h-0.014
				l0,0h-0.01l0,0h-0.01h-0.014H57.834z M57.834,70.199h-0.01l-0.014,0.005l0,0H57.8l0,0h-0.01l0,0h-0.01h-0.005h-0.01l0,0
				l-0.01,0.005l0,0h-0.01l0,0l-0.01,0.005h-0.005h-0.01l0,0c-0.014,0.005-0.024,0.01-0.039,0.014l0,0l-0.01,0.005l0,0l-0.019,0.005
				v0.005h-0.01l0,0c-0.067,0.034-0.125,0.082-0.169,0.144l0,0l-0.014,0.019l0,0l-0.005,0.005l0,0l-0.005,0.01l0,0l-0.005,0.01l0,0
				l-0.005,0.01l0,0l-0.005,0.01l0,0l-0.005,0.01l0,0l-0.005,0.01l0,0l-0.01,0.019l0,0l0,0v0.01v0.005l-0.005,0.01l0,0l-0.005,0.01
				l0,0v0.01l0,0l-0.005,0.01l0,0v0.01l0,0l-0.005,0.014l0,0v0.01l0,0l-0.005,0.01l0,0v0.01l0,0v0.014l0,0v0.01l0,0v0.01l0,0v0.014
				l0,0l0,0v2.826c0,0.241,0.197,0.438,0.438,0.438h3.693c0.246,0,0.443-0.197,0.443-0.438v-2.826l0,0l0,0v-0.014l0,0l-0.005-0.01
				l0,0v-0.01l0,0v-0.014l0,0v-0.01l0,0v-0.01l0,0l-0.005-0.01l0,0v-0.014l0,0l-0.005-0.01l0,0v-0.01l0,0l-0.005-0.01l0,0
				l-0.005-0.01l0,0v-0.01v-0.005l-0.005-0.01l0,0l0,0l-0.01-0.019l0,0v-0.01h-0.005v-0.01l0,0l-0.005-0.01l0,0l-0.005-0.01h-0.005
				l-0.005-0.01l0,0l-0.005-0.01l0,0l-0.005-0.005l0,0l-0.01-0.019l0,0c-0.043-0.063-0.101-0.111-0.169-0.144l0,0h-0.01v-0.005
				l-0.019-0.005l0,0l-0.01-0.005h-0.005c-0.01-0.005-0.024-0.01-0.039-0.014l0,0h-0.01l0,0l-0.01-0.005l0,0h-0.014l0,0l-0.01-0.005
				l0,0h-0.01l0,0h-0.01l0,0h-0.014l0,0h-0.01l0,0l-0.01-0.005h-0.014H57.834z M69.24,70.199h-0.014l-0.01,0.005l0,0h-0.01h-0.005
				h-0.01l0,0h-0.01l0,0h-0.01l0,0l-0.014,0.005l0,0h-0.01l0,0l-0.01,0.005l0,0h-0.01l0,0c-0.014,0.005-0.029,0.01-0.043,0.014l0,0
				l-0.01,0.005l0,0l-0.019,0.005v0.005h-0.01l0,0c-0.067,0.034-0.125,0.082-0.169,0.144l0,0l-0.01,0.019l0,0l-0.005,0.005h-0.005
				l-0.005,0.01l0,0l-0.005,0.01l0,0l-0.005,0.01l0,0l-0.005,0.01l0,0l-0.005,0.01l0,0l-0.005,0.01l0,0l-0.005,0.019l0,0l0,0
				l-0.005,0.01v0.005l-0.005,0.01l0,0v0.01l0,0l-0.005,0.01l0,0v0.01l0,0l-0.005,0.01l0,0v0.014l0,0l-0.005,0.01l0,0v0.01l0,0v0.01
				l0,0l-0.005,0.014l0,0v0.01l0,0v0.01l0,0v0.014l0,0l0,0v2.826c0,0.241,0.197,0.438,0.443,0.438h3.693
				c0.241,0,0.438-0.197,0.438-0.438v-2.826l0,0l0,0v-0.014l0,0v-0.01l0,0v-0.01l0,0v-0.014l0,0l-0.005-0.01l0,0v-0.01l0,0v-0.01
				l0,0l-0.005-0.014l0,0v-0.01l0,0l-0.005-0.01l0,0v-0.01l0,0l-0.005-0.01l0,0l-0.005-0.01v-0.005l-0.005-0.01l0,0l0,0
				l-0.005-0.019l0,0l-0.005-0.01l0,0l-0.005-0.01l0,0l-0.005-0.01l0,0l-0.005-0.01l0,0l-0.005-0.01l0,0l-0.005-0.01l0,0
				l-0.005-0.005l0,0l-0.014-0.019l0,0c-0.043-0.063-0.101-0.111-0.169-0.144l0,0h-0.01v-0.005l-0.019-0.005l0,0l-0.01-0.005l0,0
				c-0.014-0.005-0.029-0.01-0.039-0.014h-0.005h-0.01l0,0l-0.01-0.005l0,0h-0.01l0,0L73,70.204l0,0h-0.014l0,0h-0.01l0,0h-0.01l0,0
				h-0.014l0,0l-0.01-0.005h-0.01H69.24z"/>
			<g id="XMLID_287_">
				<path id="XMLID_293_" fill-rule="evenodd" clip-rule="evenodd" fill="#FFFFFF" d="M114.303,77.599H85.638
					c-0.265,0-0.481,0.217-0.481,0.481v1.488c0,0.265,0.217,0.481,0.481,0.481c3.261,0,6.52,0,9.781,0l-1.48,1.488h-8.301
					c-0.265,0-0.481,0.217-0.481,0.481v1.488c0,0.265,0.217,0.481,0.481,0.481c6.388,0,3.946,0,5.862,0l-6.271,6.302
					c-0.12,0.125-0.058,0.332,0.034,0.481c0.096,0.149,0.25,0.231,0.429,0.231h6.321c0.433,0,0.775-0.375,1.078-0.679l10.274-10.274
					c3.646,0,7.294,0,10.939,0c0.27,0,0.481-0.217,0.481-0.481v-1.488C114.785,77.816,114.573,77.599,114.303,77.599z"/>
				<path id="XMLID_289_" fill-rule="evenodd" clip-rule="evenodd" fill="#FFFFFF" d="M114.313,66.454H85.638
					c-0.265,0-0.481,0.217-0.481,0.481c0,2.985,0,5.965,0,8.95c0,0.265,0.217,0.481,0.481,0.481h26.191
					c1.632,0,2.966-1.334,2.966-2.966c0-2.152,0-4.309,0-6.466C114.794,66.67,114.578,66.454,114.313,66.454z M107.963,73.006v0.014
					v0.01v0.01v0.005v0.424c0,0.241-0.197,0.438-0.438,0.438h-2.499h-7.901h-0.26h-1.94h-2.499c-0.241,0-0.438-0.197-0.438-0.438
					v-0.424V73.04v-0.01v-0.01v-0.014v-0.01l0.005-0.01v-0.01v-0.005v-0.01l0.005-0.01v-0.01l0.005-0.01V72.92l0.005-0.01
					l0.005-0.01v-0.01h0.005l0.005-0.019l0.005-0.01l0.005-0.01l0.005-0.01l0.005-0.01l0.005-0.01l0.005-0.01l0.005-0.01
					l0.014-0.014c0.043-0.063,0.101-0.111,0.169-0.144l0.01-0.005l0.019-0.01h0.01c0.014-0.005,0.029-0.01,0.039-0.014h0.005
					l0.01-0.005h0.01h0.01l0.01-0.005h0.014h0.01l0.01-0.005h0.014h0.01h0.01h2.499h1.94h0.26h7.901h2.499h0.01h0.014h0.01
					l0.01,0.005h0.01h0.005h0.01l0.01,0.005h0.01h0.01h0.005l0.01,0.005c0.014,0.005,0.024,0.01,0.039,0.014h0.01l0.019,0.01
					l0.01,0.005c0.067,0.034,0.125,0.082,0.169,0.144l0.014,0.014l0.005,0.01l0.005,0.01l0.005,0.01l0.005,0.01l0.005,0.01
					l0.005,0.01l0.005,0.01l0.01,0.019v0.01l0.005,0.01l0.005,0.01v0.014l0.005,0.01v0.01l0.005,0.01v0.01v0.005v0.01l0.005,0.01
					V73.006z M107.963,69.333v0.01v0.01v0.014v0.424c0,0.241-0.197,0.438-0.438,0.438h-2.499h-7.901h-0.26h-1.94h-2.499
					c-0.241,0-0.438-0.197-0.438-0.438v-0.424v-0.014v-0.01v-0.01v-0.014l0.005-0.01v-0.01v-0.01v-0.005l0.005-0.01v-0.01
					l0.005-0.01v-0.01l0.005-0.01v-0.005l0.005-0.01v-0.01h0.005l0.005-0.019l0.005-0.01l0.005-0.01l0.005-0.01l0.005-0.01
					l0.005-0.01l0.005-0.01l0.005-0.005v-0.005l0.014-0.014c0.043-0.063,0.101-0.111,0.169-0.144l0.01-0.005l0.019-0.005l0.01-0.005
					c0.014-0.005,0.029-0.01,0.039-0.014h0.005h0.01l0.01-0.005h0.01l0.01-0.005h0.014h0.01h0.01l0.014-0.005h0.01h0.01h2.499h1.94
					h0.26h7.901h2.499h0.01h0.014l0.01,0.005h0.01h0.01h0.005h0.01l0.01,0.005h0.01l0.01,0.005h0.005h0.01
					c0.014,0.005,0.024,0.01,0.039,0.014l0.01,0.005l0.019,0.005l0.01,0.005c0.067,0.034,0.125,0.082,0.169,0.144l0.014,0.014v0.005
					l0.005,0.005l0.005,0.01l0.005,0.01l0.005,0.01l0.005,0.01l0.005,0.01l0.005,0.01l0.01,0.019v0.01l0.005,0.01v0.005l0.005,0.01
					v0.01l0.005,0.01v0.01l0.005,0.01v0.005v0.01v0.01l0.005,0.01V69.333z"/>
				<path id="XMLID_288_" fill-rule="evenodd" clip-rule="evenodd" fill="#FFFFFF" d="M114.303,81.538h-10.736l-2.455,2.451
					l5.498,6.336c0.279,0.323,0.592,0.679,1.074,0.679h6.572c0.178,0,0.332-0.082,0.424-0.231c0.096-0.149,0.154-0.351,0.034-0.481
					l-5.893-6.302h5.484c0.265,0,0.481-0.217,0.481-0.481v-1.488C114.785,81.754,114.573,81.538,114.303,81.538z"/>
			</g>
		</g>
		<g id="XMLID_275_">
			<path id="XMLID_285_" fill-rule="evenodd" clip-rule="evenodd" fill="#FFFFFF" d="M40.28,58.457
				c-0.197,0-0.351-0.101-0.448-0.351c0-0.154-0.053-0.303-0.053-0.501c0-1.959,0-1.959,0-1.959c0-0.602,0.202-0.852,0.501-0.852
				c10.582,0,10.582,0,10.582,0c-8.623-6.769-8.623-6.769-8.623-6.769c-0.703-0.554-1.257-1.155-1.608-1.757
				c-0.351-0.65-0.65-1.252-0.799-1.902c-0.202-0.905-0.303-1.757-0.303-2.662c0.048-0.852,0.25-1.651,0.554-2.354
				c0.25-0.703,0.698-1.305,1.252-1.704c0.501-0.453,1.204-0.655,1.955-0.655c13.644,0,13.644,0,13.644,0
				c0.25,0,0.4,0.149,0.448,0.404c0.053,0.149,0.053,0.25,0.053,0.4c0,2.008,0,2.008,0,2.008c0,0.602-0.149,0.852-0.501,0.852
				c-10.284,0-10.284,0-10.284,0c8.676,6.769,8.676,6.769,8.676,6.769c0.703,0.554,1.257,1.155,1.608,1.805
				c0.351,0.65,0.65,1.252,0.799,1.854c0.202,0.905,0.303,1.757,0.303,2.658c-0.053,0.905-0.202,1.656-0.501,2.359
				c-0.303,0.751-0.756,1.305-1.257,1.704c-0.549,0.453-1.204,0.655-2.003,0.655H40.28z"/>
			<path id="XMLID_284_" fill-rule="evenodd" clip-rule="evenodd" fill="#FFFFFF" d="M72.778,58.457
				c-0.197,0-0.351-0.101-0.448-0.351c0-0.202-0.053-0.351-0.053-0.501c0-8.979,0-8.979,0-8.979c-5.566,0-5.566,0-5.566,0
				c0,8.979,0,8.979,0,8.979c0,0.602-0.149,0.852-0.453,0.852c-6.37,0-6.37,0-6.37,0c-0.25,0-0.4-0.101-0.453-0.351
				c-0.048-0.202-0.048-0.351-0.048-0.501c0-19.812,0-19.812,0-19.812c0-0.554,0.202-0.804,0.501-0.804c6.37,0,6.37,0,6.37,0
				c0.25,0,0.4,0.149,0.453,0.404c0.048,0.149,0.048,0.25,0.048,0.4c-0.048,7.121-0.048,7.121-0.048,7.121c5.619,0,5.619,0,5.619,0
				c0-7.121,0-7.121,0-7.121c-0.053-0.554,0.149-0.804,0.501-0.804c6.317,0,6.317,0,6.317,0c0.25,0,0.404,0.149,0.453,0.404
				c0.048,0.149,0.048,0.25,0.048,0.4c0,19.812,0,19.812,0,19.812c0,0.602-0.149,0.852-0.448,0.852H72.778z"/>
			<g id="XMLID_281_">
				<path id="XMLID_283_" fill="#FFFFFF" d="M100.866,55.197c-0.053-0.255-0.202-0.404-0.453-0.404c0,0,0,0-4.612,0
					c-4.063,0-4.063,0-4.063,0c-0.453,0-0.852-0.149-1.155-0.4c-0.299-0.303-0.549-0.751-0.703-1.406
					c-0.096-0.453-0.197-1.001-0.25-1.656c-0.048-0.65-0.096-1.401-0.048-2.306c-0.048-3.409-0.048-3.409-0.048-3.409
					c0-1.001,0.048-1.805,0.096-2.407c0.101-0.65,0.202-1.156,0.404-1.555c0.149-0.351,0.4-0.602,0.65-0.751
					c0.303-0.154,0.655-0.25,1.054-0.25c4.063,0,4.063,0,4.063,0h4.564c0.298,0,0.501-0.25,0.501-0.852c0,0,0,0,0-2.008
					c0-0.149-0.053-0.25-0.053-0.4c-0.096-0.255-0.25-0.404-0.448-0.404c0,0,0,0-4.564,0c-8.377,0-8.377,0-8.377,0
					c-0.852,0-1.603,0.202-2.258,0.554c-0.703,0.4-1.305,0.953-1.854,1.603c-0.554,0.703-1.001,1.507-1.353,2.407
					c-0.351,0.953-0.602,1.955-0.756,3.062c-0.149,1.05-0.197,2.205-0.096,3.409c0.048,1.204,0.25,2.407,0.549,3.659
					c0.25,0.953,0.602,1.907,1.001,2.711c0.351,0.852,0.804,1.555,1.305,2.157c0.501,0.602,1.054,1.102,1.608,1.401
					c0.602,0.351,1.204,0.505,1.805,0.505c8.425,0,8.425,0,8.425,0s0,0,4.612,0c0.351,0,0.501-0.25,0.501-0.852c0,0,0,0,0-1.96
					C100.914,55.496,100.914,55.347,100.866,55.197z"/>
				<path id="XMLID_282_" fill="#FFFFFF" d="M100.211,44.914c0,0,0,0-4.41,0c0,0,0,0-4.415,0c-0.351,0-0.554,0.303-0.501,0.804
					c0,0,0,0,0,2.056c0,0.149,0,0.298,0.048,0.453c0.053,0.25,0.202,0.4,0.404,0.4c0,0,0,0,4.463,0c0,0,0,0,4.41,0
					c0.303,0,0.453-0.202,0.505-0.602c0,0,0,0,0-2.557c0-0.154-0.053-0.25-0.053-0.25C100.616,45.015,100.462,44.914,100.211,44.914
					z"/>
			</g>
			<path id="XMLID_280_" fill-rule="evenodd" clip-rule="evenodd" fill="#FFFFFF" d="M122.883,58.457c-0.404,0-0.703,0-1.006-0.101
				c-0.25-0.053-0.602-0.25-1.001-0.501c-14.997-9.783-14.997-9.783-14.997-9.783c0,9.533,0,9.533,0,9.533
				c0,0.602-0.149,0.852-0.448,0.852c-2.407,0-2.407,0-2.407,0c-0.25,0-0.404-0.101-0.453-0.351
				c-0.048-0.202-0.048-0.351-0.048-0.501c0-19.812,0-19.812,0-19.812c0-0.554,0.197-0.804,0.501-0.804c2.104,0,2.104,0,2.104,0
				c0.453,0,0.751,0,1.006,0.101c0.25,0.048,0.602,0.202,1.001,0.501c13.943,9.33,13.943,9.33,13.943,9.33
				c0.048-9.128,0.048-9.128,0.048-9.128c0-0.554,0.149-0.804,0.453-0.804c2.407,0,2.407,0,2.407,0c0.25,0,0.4,0.149,0.453,0.404
				c0.048,0.149,0.048,0.25,0.048,0.4c0,19.812,0,19.812,0,19.812c0,0.602-0.202,0.852-0.501,0.852H122.883z"/>
			<path id="XMLID_279_" fill-rule="evenodd" clip-rule="evenodd" fill="#FFFFFF" d="M139.782,58.457c-0.25,0-0.4-0.101-0.453-0.351
				c-0.048-0.202-0.048-0.351-0.048-0.501c0-8.979,0-8.979,0-8.979c-5.566,0-5.566,0-5.566,0c0,8.979,0,8.979,0,8.979
				c0,0.602-0.149,0.852-0.453,0.852c-6.418,0-6.418,0-6.418,0c-0.202,0-0.351-0.101-0.453-0.351c0-0.202-0.053-0.351-0.053-0.501
				c0.053-19.812,0.053-19.812,0.053-19.812c0-0.554,0.149-0.804,0.501-0.804c6.37,0,6.37,0,6.37,0c0.202,0,0.351,0.149,0.453,0.404
				c0,0.149,0,0.25,0,0.4c0,7.121,0,7.121,0,7.121c5.566,0,5.566,0,5.566,0c0-7.121,0-7.121,0-7.121
				c0-0.554,0.149-0.804,0.501-0.804c6.37,0,6.37,0,6.37,0c0.25,0,0.351,0.149,0.453,0.404c0.048,0.149,0.048,0.25,0.048,0.4
				c-0.048,19.812-0.048,19.812-0.048,19.812c0,0.602-0.149,0.852-0.453,0.852H139.782z"/>
			<path id="XMLID_278_" fill-rule="evenodd" clip-rule="evenodd" fill="#FFFFFF" d="M165.761,58.457
				c-0.351,0-0.703-0.202-0.953-0.602c-7.169-12.638-7.169-12.638-7.169-12.638c-5.671,9.576-5.671,9.576-5.671,9.576
				c8.43,0,8.43,0,8.43,0c0.25,0,0.347,0.149,0.448,0.404c0.053,0.149,0.053,0.298,0.053,0.448c0,1.959,0,1.959,0,1.959
				c0,0.602-0.154,0.852-0.501,0.852c-12.34,0-12.34,0-12.34,0c-0.202,0-0.303-0.101-0.351-0.351c-0.048-0.202,0-0.404,0.101-0.655
				c11.637-19.86,11.637-19.86,11.637-19.86c0.25-0.4,0.501-0.602,0.799-0.602c1.204,0,1.204,0,1.204,0
				c0.202,0,0.351,0.053,0.453,0.149c0.149,0.101,0.25,0.255,0.4,0.453c11.434,19.759,11.434,19.759,11.434,19.759
				c0.053,0.255,0.101,0.351,0.101,0.404c0.053,0.197,0.053,0.351,0,0.501c-0.048,0.149-0.149,0.202-0.4,0.202H165.761z"/>
			<path id="XMLID_277_" fill-rule="evenodd" clip-rule="evenodd" fill="#FFFFFF" d="M179.053,58.457
				c-0.655,0-1.257-0.154-1.858-0.506c-0.602-0.347-1.103-0.852-1.603-1.454c-0.501-0.602-0.953-1.3-1.353-2.157
				c-0.404-0.799-0.703-1.704-0.953-2.658c-0.303-1.252-0.506-2.455-0.602-3.659c-0.053-1.204,0-2.359,0.149-3.462
				c0.149-1.103,0.4-2.104,0.751-3.009c0.351-0.9,0.804-1.704,1.353-2.407c0.554-0.65,1.155-1.204,1.858-1.603
				c0.65-0.351,1.401-0.554,2.258-0.554c4.41,0,4.41,0,4.41,0c4.665,0,4.665,0,4.665,0c0.65,0,1.252,0.149,1.854,0.501
				c0.602,0.351,1.155,0.804,1.608,1.406c0.501,0.602,0.953,1.305,1.353,2.109c0.351,0.852,0.703,1.704,0.953,2.706
				c0.298,1.204,0.501,2.46,0.554,3.664c0.096,1.204,0.048,2.354-0.101,3.457c-0.202,1.054-0.453,2.109-0.804,3.009
				c-0.351,0.953-0.804,1.757-1.353,2.46c-0.554,0.65-1.155,1.204-1.858,1.603c-0.65,0.351-1.401,0.554-2.205,0.554h-4.665H179.053z
				"/>
			<path id="XMLID_276_" fill-rule="evenodd" clip-rule="evenodd" fill="#F4A000" d="M183.463,40.653c-1.353,0-1.353,0-1.353,0
				c-0.351,0-0.65,0.096-0.905,0.25c-0.25,0.149-0.501,0.453-0.65,0.799c-0.149,0.404-0.25,0.905-0.351,1.507
				c-0.048,0.65-0.101,1.454-0.101,2.407c0,3.409,0,3.409,0,3.409c0,1.858,0.154,3.211,0.351,4.063
				c0.149,0.602,0.404,1.054,0.655,1.305c0.299,0.25,0.602,0.4,1.001,0.4c1.353,0,1.353,0,1.353,0c1.204,0,1.204,0,1.204,0
				c0.404,0,0.703-0.101,1.006-0.298c0.25-0.202,0.448-0.554,0.65-0.953c0.202-0.453,0.299-1.054,0.4-1.805
				c0.053-0.703,0.101-1.608,0.101-2.711c0-3.409,0-3.409,0-3.409c0-0.751,0-1.406-0.048-1.955c0-0.554-0.101-1.006-0.202-1.406
				c-0.149-0.602-0.4-1.001-0.703-1.252c-0.351-0.202-0.751-0.351-1.204-0.351C183.463,40.653,183.463,40.653,183.463,40.653
				L183.463,40.653z"/>
		</g>
	</g>
</g>
</svg>
