<?xml version="1.0" standalone="no"?><!DOCTYPE svg PUBLIC "-//W3C//DTD SVG 1.1//EN" "http://www.w3.org/Graphics/SVG/1.1/DTD/svg11.dtd"><svg t="1586056247676" class="icon" viewBox="0 0 1024 1024" version="1.1" xmlns="http://www.w3.org/2000/svg" p-id="4054" xmlns:xlink="http://www.w3.org/1999/xlink" width="200" height="200"><defs><style type="text/css">html, * { user-select: text !important; }
</style></defs><path d="M931.354247 104.85307c0.367382-9.836019-22.233261-17.5804-82.311983-15.702634L459.0709 89.150436c-57.086452 0-111.716868 6.980995-138.403741 22.629393L135.926215 224.642317c-5.811594 2.885723-11.32744 6.260587-16.489208 10.073426l-2.622841 1.602498c-4.438261 2.536776-8.098777 5.460362-9.545791 8.843412-19.60121 19.479657-31.706395 46.242184-31.706395 75.78708l0 503.419578c0 59.579957 49.210765 107.880009 109.903495 107.880009l512.915385 0c35.298347 0 66.704901-16.325827 86.817785-41.697681l140.519001-105.541755c16.298866-12.242835 29.395675-67.223031 29.395675-122.921587l0-470.710618C955.112297 142.273331 944.933054 106.717534 931.354247 104.85307zM748.255777 784.548396c0 48.950875-41.625708 88.627527-92.999831 88.627527L221.147577 873.175923c-51.376169 0-93.030532-39.676651-93.030532-88.627527L128.117045 370.95259c0-48.949852 41.654362-88.626503 93.030532-88.626503l434.108369 0c51.374123 0 92.999831 39.675628 92.999831 88.626503L748.255777 784.548396zM724.803708 204.516954c-12.952517 10.283204-28.760176 18.691711-78.779386 18.691711L291.87833 223.208665c-27.602769 4.803399-75.371636 6.879688-32.278447-18.691711l115.847101-71.319325c15.523168-7.990998 30.203097-11.639085 77.251527-11.639085l347.653872-1.038656c47.019776 0 75.721621-8.076956 63.980748 1.255597L724.803708 204.516954zM925.486369 621.198028c0 45.705971-9.346238 90.819448-21.000127 100.871385l-96.173234 82.977853L808.313009 320.949756c0-24.415063-8.268653-46.929846-22.201538-65.00655 2.702662-9.818623 5.892439-17.72264 9.371822-22.889313 1.87375-1.39272 3.470173-2.694365 4.753452-3.874237l4.18447-3.850701 100.06605-60.430324c11.653888-7.023974 21.000127 24.388457 21.000127 70.093405L925.487393 621.198028z" p-id="4055" fill="#ffffff"></path></svg>