<?xml version="1.0" encoding="utf-8"?>
<!-- Generator: Adobe Illustrator 17.0.0, SVG Export Plug-In . SVG Version: 6.00 Build 0)  -->
<!DOCTYPE svg PUBLIC "-//W3C//DTD SVG 1.1//EN" "http://www.w3.org/Graphics/SVG/1.1/DTD/svg11.dtd">
<svg version="1.1" id="图层_1" xmlns="http://www.w3.org/2000/svg" xmlns:xlink="http://www.w3.org/1999/xlink" x="0px" y="0px"
	 width="55.129px" height="55.185px" viewBox="0 0 55.129 55.185" enable-background="new 0 0 55.129 55.185" xml:space="preserve">
<g>
	<g>
		<path fill="#FFFFFF" d="M36.921,11.823c-2.811-1.69-5.964-2.535-9.116-2.535c-3.153,0-6.304,0.845-9.116,2.535
			c-5.623,3.38-8.901,9.549-8.555,16.101l0.001,12.763c0,0.807,0.656,1.463,1.463,1.463h32.417c0.807,0,1.463-0.656,1.463-1.463
			V27.953C45.823,21.372,42.544,15.202,36.921,11.823z M42.55,39.223H13.06v-11.27c0-8.145,6.603-14.771,14.72-14.771
			c8.144,0,14.771,6.626,14.771,14.771V39.223z"/>
		<path fill="#FFFFFF" d="M9.618,52.194h36.424c2.317,0,4.202-1.885,4.202-4.203c0-2.317-1.885-4.202-4.202-4.202H9.618
			c-2.318,0-4.203,1.885-4.203,4.202C5.415,50.309,7.3,52.194,9.618,52.194z M9.618,46.715h36.424c0.704,0,1.277,0.572,1.277,1.276
			s-0.573,1.277-1.277,1.277H9.618c-0.704,0-1.277-0.573-1.277-1.277S8.914,46.715,9.618,46.715z"/>
	</g>
	<g>
		<path fill="#FFFFFF" d="M24.127,37.127c0.385-0.008,0.746-0.163,1.016-0.439l10.251-10.251c0.406-0.415,0.527-1.035,0.304-1.577
			c-0.223-0.542-0.746-0.898-1.332-0.906h-9.577l5.279-5.278c0.576-0.577,0.576-1.515,0-2.091c-0.558-0.558-1.533-0.558-2.091,0
			l-7.762,7.762c-0.407,0.415-0.528,1.035-0.304,1.576c0.223,0.543,0.746,0.898,1.332,0.907h8.261h1.36l-7.755,7.814
			c-0.408,0.416-0.529,1.037-0.306,1.578C23.025,36.761,23.544,37.116,24.127,37.127z"/>
		<path fill="#FFFFFF" d="M43.464,13.829c-0.386,0.421-0.489,1.037-0.26,1.566c0.228,0.527,0.748,0.874,1.323,0.881
			c0.417,0.007,0.817-0.168,1.098-0.476l2.692-2.894c0.509-0.582,0.458-1.498-0.124-2.032c-0.583-0.534-1.5-0.501-2.045,0.069
			L43.464,13.829z"/>
		<path fill="#FFFFFF" d="M38.019,4.628l-1.878,3.503c-0.243,0.451-0.232,1.003,0.028,1.442c0.262,0.44,0.74,0.715,1.251,0.717
			h0.009c0.01,0.001,0.02,0.001,0.03,0.001c0.539,0,1.029-0.292,1.287-0.768l1.876-3.499c0.251-0.466,0.234-1.032-0.044-1.479
			c-0.269-0.435-0.746-0.699-1.254-0.699c-0.017,0-0.033,0-0.05,0.001C38.747,3.863,38.266,4.163,38.019,4.628z"/>
		<path fill="#FFFFFF" d="M7.405,12.919l2.678,2.879c0.274,0.299,0.66,0.472,1.061,0.479h0.046c0.568-0.008,1.088-0.354,1.317-0.882
			c0.229-0.529,0.126-1.144-0.263-1.569l-2.686-2.889c-0.54-0.565-1.457-0.595-2.04-0.063C6.936,11.408,6.886,12.325,7.405,12.919z"
			/>
		<path fill="#FFFFFF" d="M15.141,6.026l1.875,3.498c0.254,0.469,0.744,0.764,1.279,0.767h0.049
			c0.508-0.002,0.987-0.277,1.248-0.717c0.261-0.439,0.272-0.991,0.029-1.44l-1.878-3.502c-0.385-0.713-1.28-0.982-1.996-0.599
			C15.032,4.415,14.76,5.309,15.141,6.026z"/>
		<path fill="#FFFFFF" d="M27.83,1.531c-0.807,0-1.463,0.656-1.463,1.463v3.957c0,0.807,0.656,1.463,1.463,1.463
			c0.807,0,1.463-0.656,1.463-1.463V2.994C29.293,2.187,28.637,1.531,27.83,1.531z"/>
	</g>
</g>
</svg>
