<?xml version="1.0" encoding="utf-8"?>
<!-- Generator: Adobe Illustrator 17.0.0, SVG Export Plug-In . SVG Version: 6.00 Build 0)  -->
<!DOCTYPE svg PUBLIC "-//W3C//DTD SVG 1.1//EN" "http://www.w3.org/Graphics/SVG/1.1/DTD/svg11.dtd">
<svg version="1.1" id="图层_1" xmlns="http://www.w3.org/2000/svg" xmlns:xlink="http://www.w3.org/1999/xlink" x="0px" y="0px"
	 width="55.129px" height="55.185px" viewBox="0 0 55.129 55.185" enable-background="new 0 0 55.129 55.185" xml:space="preserve">
<g>
	<path fill="#FFFFFF" d="M51.899,53.597c-0.001,0.888,0.747,1.589,1.629,1.587c0.425,0,0.827-0.163,1.122-0.451
		c0.304-0.297,0.479-0.712,0.479-1.136V24.011c0-5.554-4.518-10.071-10.072-10.071s-10.071,4.493-10.071,10.016v19.229
		c0,4.866-3.96,8.825-8.826,8.825h-1.873c-3.551,0-6.664-2.409-7.57-5.859l-0.204-0.773h8.545c1.307,0,2.536-0.509,3.46-1.433
		c0.924-0.924,1.433-2.153,1.433-3.46v-23.25c0-1.307-0.509-2.535-1.433-3.46c-0.703-0.702-1.595-1.169-2.579-1.35l-0.506-0.092
		v-4.63c0-0.718-0.279-1.394-0.788-1.902c-0.508-0.507-1.183-0.786-1.901-0.786h-2.435V1.587c-0.001-0.875-0.712-1.587-1.587-1.587
		s-1.587,0.712-1.587,1.587v3.427h-4.319V1.587C12.816,0.712,12.103,0,11.228,0c-0.874,0-1.586,0.712-1.586,1.587v3.427H7.207
		c-0.718,0-1.394,0.279-1.902,0.787C4.797,6.309,4.518,6.985,4.518,7.703v4.63l-0.506,0.092c-0.984,0.18-1.876,0.647-2.579,1.35
		C0.509,14.699,0,15.927,0,17.234v23.25c0,1.307,0.509,2.535,1.433,3.46c0.924,0.924,2.154,1.433,3.46,1.433h8.453l0.083,0.52
		c0.844,5.294,5.511,9.287,10.858,9.287h1.873c3.206,0,6.219-1.248,8.485-3.515c2.266-2.267,3.515-5.28,3.515-8.485V23.955
		c0.338-3.622,3.29-6.309,6.87-6.309s6.532,2.688,6.867,6.252L51.899,53.597z M7.692,8.188h14.566v4.153H7.692V8.188z M4.893,42.203
		c-0.459,0-0.89-0.178-1.215-0.503c-0.32-0.319-0.504-0.762-0.504-1.215v-23.25c0-0.452,0.184-0.895,0.503-1.215
		c0.326-0.325,0.757-0.503,1.215-0.503h20.165c0.459,0,0.891,0.179,1.215,0.503c0.32,0.32,0.503,0.763,0.503,1.215v23.25
		c0,0.453-0.184,0.896-0.504,1.215c-0.323,0.324-0.755,0.503-1.215,0.503H4.893z"/>
	<path fill="#FFFFFF" d="M12.442,37.904l8.821-8.766c0.44-0.449,0.571-1.121,0.328-1.71c-0.241-0.587-0.807-0.972-1.441-0.983
		h-6.167l4.303-4.303c0.625-0.626,0.625-1.643,0-2.269c-0.626-0.626-1.645-0.626-2.269,0l-7.052,7.053
		c-0.441,0.45-0.572,1.123-0.329,1.711c0.242,0.588,0.809,0.974,1.445,0.983h4.73h1.489l-6.067,6.067
		c-0.441,0.45-0.572,1.123-0.329,1.71c0.242,0.588,0.809,0.974,1.445,0.983C11.752,38.374,12.146,38.205,12.442,37.904z"/>
</g>
</svg>
